<svg xmlns="http://www.w3.org/2000/svg" viewBox="0 0 465.63 762.59"><defs><style>.cls-1{fill:none;stroke:#000;stroke-miterlimit:10;}</style></defs><title>car_wash</title><g id="Layer_2" data-name="Layer 2"><g id="Layer_1-2" data-name="Layer 1"><path class="cls-1" d="M346.59,110.89q-.66,14.89-.63,29.81a32,32,0,0,0,1,9.52c2-1.14,2.32-3.76,2.47-6l1.06-15.94c.51-7.67,1-15.39.28-23.05a124.22,124.22,0,0,1,20.25,4.9c3.93,1.23,7.91,2.57,11.29,4.93s6.17,5.88,6.71,10c.75,5.7-2.92,11.09-7.25,14.86,2.39,2,2.73,5.4,3.46,8.4a25.48,25.48,0,0,0,3.8,8.43,1.74,1.74,0,0,1,.44,1.16,1.6,1.6,0,0,1-.79.95l-3.91,2.81a36,36,0,0,0-12.51-3.35c.77-2.2,3.75-2.56,6-2.08s4.76,1.36,6.83.3a15,15,0,0,1-12.8-8.92c-.87-2.06-1.27-4.32-2.38-6.27s-3.25-3.57-5.44-3.1a1.64,1.64,0,0,0-1,.57,2.15,2.15,0,0,0-.31,1.06l-1.33,11.95a1.28,1.28,0,0,1-.4,1,1.11,1.11,0,0,1-.72.15,18.47,18.47,0,0,1-9.79-2.86c-.43,0-.5-.7-.15-.95A1.52,1.52,0,0,1,352,149l8.93,2.06"/><path class="cls-1" d="M363.91,119.55a7.8,7.8,0,0,1,3.19.09,10.18,10.18,0,0,1,2.93,1.27,9,9,0,0,1,3.49,3.5,7.16,7.16,0,0,1,.68,2.45c.06.67.16,1.52.81,1.7s1.31-.77,1.4-1.56a8.4,8.4,0,0,0-2.2-6.67c-2.3-2.42-5.78-3.23-9-3.92a3,3,0,0,0-1.78,0c-.89.38-1.16,1.49-1.29,2.44a27,27,0,0,0,.27,9.65.67.67,0,0,0,.2.41.8.8,0,0,0,.34.11c2.25.29,4.52.49,6.79.61"/><path class="cls-1" d="M155.61,157.1q4.63,36.74,11.37,73.16a4.43,4.43,0,0,0,1,2.5c1.78-.8,2.32-3,2.43-5,.45-8-2.6-15.78-4.31-23.64-2.37-10.88-2.18-22.12-3-33.21-.68-8.62-2-17.18-3.31-25.74L175,148.66a3.7,3.7,0,0,1,1.31.49,3.65,3.65,0,0,1,1.08,2.76q1.59,18.14,4.15,36.16a22.26,22.26,0,0,0,1.64,6.56c.94-.17,1.34-1.27,1.56-2.19,3-12.77,3.67-26,7.32-38.64-1.4-.73-3.18.24-4,1.6A12.6,12.6,0,0,0,187,160c-.84,6-3.91,11.62-3.69,17.64"/><path class="cls-1" d="M197.62,154l7.79,1.91a3.43,3.43,0,0,1,1.48.63,3.35,3.35,0,0,1,.82,1.92c2.29,11.65,4.57,23.31,6.16,35.07.28,2.06.6,4.28,2,5.79q3.16-19.6,7.54-39c-1.52-.08-3.2-.11-4.35.88a6,6,0,0,0-1.56,3.45l-3.32,15.65"/><path class="cls-1" d="M227.25,160.63l5.87.78a2.49,2.49,0,0,1,1.87.82,2.33,2.33,0,0,1,.3,1.08,36.88,36.88,0,0,1-.81,9.92c-3.8,21.83-7.75,43.64-11.69,65.45a1.53,1.53,0,0,1-.26.72,1.5,1.5,0,0,1-1.08.35,51.22,51.22,0,0,1-15.59-1.66,1.31,1.31,0,0,0-1,0,1.22,1.22,0,0,0-.46.75l-.89,2.64c12.41,1.14,24.56.67,37,.07a1.75,1.75,0,0,0,2-1.5q7.47-22.5,15-45"/><path class="cls-1" d="M197.06,222.2a42.92,42.92,0,0,1,3.38,13.08,3.77,3.77,0,0,0,.84,2.51,12.75,12.75,0,0,0,1.83-5.83,25.16,25.16,0,0,0-1.14-7.12c-2.45-9.85-3.38-20-4.29-30.12-1.55,1.76-1.63,4.33-1.75,6.67-.57,11-4,21.65-7.38,32.13a3.24,3.24,0,0,1-.9,1.63,3.14,3.14,0,0,1-2.2.42,62.76,62.76,0,0,1-13.74-2.37c-.39-1.34,1.32-2.28,2.69-2.55a25.36,25.36,0,0,1,11.65.5"/><path class="cls-1" d="M261.86,186.43a404.09,404.09,0,0,0-16.43,58.65c-.1.51-.16,1.13.24,1.46.59.49,1.43-.16,1.88-.78,2.18-3.08,3.3-6.77,4.39-10.38l18.42-61.23a2.51,2.51,0,0,1,1.07-1.66,2.44,2.44,0,0,1,1.23-.1A62.11,62.11,0,0,1,288.47,176a2.46,2.46,0,0,1,1.94,2.18c2.13,8.29,3.31,16.87,6.67,24.74a32.46,32.46,0,0,1,2.57,7,50.83,50.83,0,0,1,.27,6.42c.28,5.65,2.69,11,3.62,16.55.6,3.56.59,7.19,1,10.78a20.27,20.27,0,0,0,2.12,7.66c.73,1.33,1.74,2.81,1.18,4.22l-8-1.13a15.59,15.59,0,0,0-6-.08,5.34,5.34,0,0,0-4.14,3.94c9.9,1.54,19.76.29,29.71,1.31a127.32,127.32,0,0,1,30.63,7"/><path class="cls-1" d="M250.6,248.3l7.84.91a4.1,4.1,0,0,0,2.23-.17,1.4,1.4,0,0,0,.74-1.86l-6.87-2.1,6.49.65a2.46,2.46,0,0,0,2.21-.52,2.4,2.4,0,0,0,.4-1.29,61.16,61.16,0,0,1,2.65-12,1.78,1.78,0,0,1,2.33-1.59l19.73,2.4,3.23,14.88a7.91,7.91,0,0,1,.24,3.24,2.67,2.67,0,0,1-2.12,2.21c-1.81.19-2.86-2-3.16-3.79s-.67-4-2.39-4.59"/><path class="cls-1" d="M273.71,209.54l1.45,6.09a20.73,20.73,0,0,0,7.31,1.24c-.49-4.94-2.59-9.59-3.13-14.52-.3-2.72-.18-5.66-1.72-7.91-1.21,3.65-2.56,7.27-4.05,10.82a46.7,46.7,0,0,1-3,6.12c-1,1.58-2.11,3.24-1.91,5.07l1.79.65"/><path class="cls-1" d="M365.21,217.57a8.07,8.07,0,0,0-1.92,3.22,68.76,68.76,0,0,0,16,1.34c.69,0,1.56-.19,1.7-.87.19-.85-1-1.32-1.83-1.42l-6.43-.77a7.86,7.86,0,0,1-4-1.24c-1.48-1.16-1.9-3.17-2.38-5a18.51,18.51,0,0,0-3.22-7,9.33,9.33,0,0,0-6.6-3.68,6.34,6.34,0,0,0-6.22,3.78c-.86,2.32,0,4.94,1.34,7a33.64,33.64,0,0,0,6.86,7.14l14.37,12.28a18.14,18.14,0,0,1,6.68,9c1.22,3,2.46,6.1,2.29,9.32a18.9,18.9,0,0,1-2,6.73c-1.52,3.34-3.46,6.71-6.65,8.53s-6.73,1.79-10.23,1.66c-3.2-.12-6.48-.36-9.37-1.74a20.6,20.6,0,0,1-6.64-5.59,45.23,45.23,0,0,1-10.56-23.73l-2.79,1.93a2.33,2.33,0,0,0-1,3.23c1.34,5.17,2.89,10.37,5.7,14.92s7,8.42,12.21,9.77"/><path class="cls-1" d="M340.72,236.85l9.51,2.06a4.21,4.21,0,0,1,2.43,1.11,4,4,0,0,1,.72,1.74c.65,2.92.81,6,2.18,8.68s4.48,4.8,7.29,3.78a5.68,5.68,0,0,0,3.35-5.34,11.19,11.19,0,0,0-2.26-6.21,22.69,22.69,0,0,0-6.25-6.14c-2.24-1.48-4.74-2.55-7-4-5.26-3.38-9-8.67-12-14.17a29,29,0,0,1-2.46-5.63,18.27,18.27,0,0,1,3.82-17,7.51,7.51,0,0,0-5.45,3.8,20.88,20.88,0,0,0-2.22,6.49c-1.11,5-2,10.48,0,15.21a18.61,18.61,0,0,0,4.43,6c5.56,5.32,12.79,8.48,19.07,12.92,2.09,1.48,4.21,3.3,4.77,5.79"/><path class="cls-1" d="M356.92,208.42c.77-.36,1.63.26,2.2.89a13.64,13.64,0,0,1,2.69,4.42"/><path class="cls-1" d="M353.19,189.93c4.06,1.56,8.81.89,12.64,2.93a19.88,19.88,0,0,1,5.33,4.82A32.61,32.61,0,0,1,376.4,205c1.12,2.42,1.58,5.05,2.43,7.57,1.06,3.13,1.81,2.72,4.79,2.76,6.2.07,12.14-1.22,18.3-1.69a6,6,0,0,1,2.49.19,2.2,2.2,0,0,1,1.53,1.81"/><path class="cls-1" d="M405.62,215.66a170,170,0,0,1-.06,20.44,60,60,0,0,0-.23,7.22c.16,2.68.74,5.32,1.07,8a87.88,87.88,0,0,1,.48,9.32l.29,17.86a2.11,2.11,0,0,0,.16,1c.43.85,1.72.77,2.52.26,2-1.28,2.4-4,2.54-6.33.16-2.81.21-5.64.15-8.46-.14-6.65-.91-13.28-1.38-19.92-.6-8.38-.74-16.78-.88-25.18l-.1-6.41-.16-9.6c4.21-.47,8.4.78,12.45,2a2,2,0,0,1,1,.56,2,2,0,0,1,.3,1.3q0,12.42-1.21,24.8a4.82,4.82,0,0,0,.38,3.06,4.47,4.47,0,0,0,2.59,1.57,33,33,0,0,0,10.9,1.39,1.74,1.74,0,0,0,1.39-.5,1.77,1.77,0,0,0,.24-.93l1.25-17.18c.26-3.65.49-7.51-1.11-10.81a2.31,2.31,0,0,0-2.76.86,6.44,6.44,0,0,0-1,3,97.39,97.39,0,0,0-.82,19.9"/><path class="cls-1" d="M412.13,281.63c2.61-.05,5.11,1,7.7,1.31s5.68-.48,6.69-2.89a7.63,7.63,0,0,0,.43-2.6q.53-10.35.06-20.73a50.41,50.41,0,0,1,9.43.64q-1,14.19-.81,28.43a138.65,138.65,0,0,0,17.52,2.94c-.76-.17-.76-1.35-.22-1.93s1.34-.83,1.92-1.36c1-.94,1.12-2.5,1.13-3.9q.11-16.52-1.1-33"/><path class="cls-1" d="M449.73,285q-4.07-1-8.06-2.32a2.31,2.31,0,0,1-1.24-.73,2.26,2.26,0,0,1-.31-1.09,43.46,43.46,0,0,1,.31-10.81c.3-1.94.73-3.86.91-5.81.41-4.54-.54-9.07-1.48-13.52l-14-1.28a2,2,0,0,1,0,2.49"/><path class="cls-1" d="M441.4,209.38l9.74,1.94a1.59,1.59,0,0,1,.82.32,1.64,1.64,0,0,1,.35,1.19q.44,18,2.55,35.85"/><path class="cls-1" d="M259,109.28c-.61-3.52-1-7.19,0-10.63s3.62-6.62,7.14-7.27a7.42,7.42,0,0,1,8.76,7.56c0,.85-.13,1.89.58,2.37a2.28,2.28,0,0,0,.82.28l14,2.76a5.77,5.77,0,0,1-4.33,1.74,17.38,17.38,0,0,1-4.72-.86L273.53,103a11.84,11.84,0,0,0,1.41-1.51l-1,.27a8.87,8.87,0,0,0-7.11-8.44"/><path class="cls-1" d="M258.91,109.73c-.29,1.9,1,3.64,2.34,5,1.56,1.68,3.42,3.37,5.71,3.58,3.25.29,5.89-2.45,8-5q7.77,2.36,15.39,5.17c-3.27,5.51-7.51,11-13.58,13-4.51,1.54-9.53,1-14-.66a52.9,52.9,0,0,1-12.35-7.13,21.76,21.76,0,0,1-3.45-2.89,20.3,20.3,0,0,1-3.6-6.44,32,32,0,0,1-2.55-10.84,19.93,19.93,0,0,1,4.78-13.23c-.6,5.94-1.2,12-.24,17.83a21.49,21.49,0,0,0,1.73,5.84,20.06,20.06,0,0,0,2.13,3.41,29.57,29.57,0,0,0,13.51,10.07,27.44,27.44,0,0,0,16.81.6"/><path class="cls-1" d="M250.14,84.46c5.35-4,12.71-3.76,19.29-2.61a27,27,0,0,1,4.78,1.2c6.16,2.31,10.2,8.16,13.42,13.9,1.52,2.7,4.22,2.63,7,3.42a38.79,38.79,0,0,0,4,.94c2,.31,4,.3,5.83,1.12a2.08,2.08,0,0,0,1.21.32,1.89,1.89,0,0,0,1.07-.94L308,99.94"/><path class="cls-1" d="M307.82,100.62l2-5.84a1.94,1.94,0,0,1,.72-1.11,2,2,0,0,1,1.08-.11,81,81,0,0,1,11.67,2.06,3.86,3.86,0,0,1,2,1,3.74,3.74,0,0,1,.6,1.09c1.29,3.07,2.57,6.14,3.56,9.31.61,1.94,1.1,3.92,1.82,5.83,1.09,2.88,2.66,5.54,4,8.32,1.19,2.48,2.19,5,3.19,7.62l5.75,14.8c.53,1.35,1,2.91.35,4.18-.87,1.58-3,1.74-4.84,1.71l-5.33-.11c-2.36,0-4.91-.16-6.74-1.65l2.87-3.72,7.69,1.23"/><path class="cls-1" d="M308.33,132.29a58.1,58.1,0,0,1,11.18,2.8,7.85,7.85,0,0,0,2.72.65,2.43,2.43,0,0,0,2.26-1.36,4.47,4.47,0,0,0-.49,2.19,4.58,4.58,0,0,0,.53,1.46,23.16,23.16,0,0,1,2,6.61"/><path class="cls-1" d="M329.36,141a58.52,58.52,0,0,0-3-7.87,3.79,3.79,0,0,0-.91-1.34,3.75,3.75,0,0,0-1.3-.59,52,52,0,0,0-15.54-2.11,1.2,1.2,0,0,0-.5.09,1.11,1.11,0,0,0-.45.57l-3.45,7.17a5.39,5.39,0,0,1-1.17,1.79c-1,.92-2.56.93-3.93.82a43.33,43.33,0,0,1-6.6-1c.54-1.31-.07-3.27,1.2-3.89a2.39,2.39,0,0,1,1.13-.15,38.26,38.26,0,0,1,4.55.4c.41.06.89.19,1,.58.21.58-.9,1-1.11.41"/><path class="cls-1" d="M312.9,117.92c2.22-2.83,2.52-6.71,4.25-9.85a24.08,24.08,0,0,1,2.13,4.94l2.31,6.69c-1.27.18-2.55.3-3.83.37a.46.46,0,0,1-.58-.37l-.84-2.35"/><path class="cls-1" d="M248.37,52.89q106.7,25.08,211.32,58a9.16,9.16,0,0,1,3.27,1.52c2.24,1.86,2.26,5.22,2.11,8.12-1.67,32.62-1.48,65.3-1.29,98l.22,37.16.31,53.62A19.3,19.3,0,0,0,451.77,314"/><path class="cls-1" d="M434.29,308.09c-36.76-7.9-55.53-10.41-92.53-17l-85.51-15.33-44.42-8-74.41-13.33c6.71-4.41,15.48-3.28,23.4-2,98.83,16.39,192.62,34.57,290.41,56.3"/><path class="cls-1" d="M149.19,216.76c-2.2-24.65-3.35-49.49-1.09-74.13.79-8.6,2-17.16,2.49-25.78.4-7.11.32-14.24.17-21.35q-.62-27.93-2.73-55.78"/><path class="cls-1" d="M244.07.06a104.83,104.83,0,0,1-2.37,38.29A17.91,17.91,0,0,1,240,42.82c-5.07,9-12.68,4.48-19.48,2.24Q209,41.27,197.33,38,174,31.46,150.2,27a14.53,14.53,0,0,0-4.5-.34,8.34,8.34,0,0,0-4.21,1.92c-4.31,3.63-4.62,10-4.59,15.68q.6,97.49,1.21,195a3.4,3.4,0,0,0,.43,1.74"/><path class="cls-1" d="M250.36,84c-1.5.53-3.05-1-3.25-2.59s.48-3.11.94-4.63c1.91-6.3.22-13-.08-19.62-.08-1.75.11-3.84,1.63-4.73l-1-.12"/><path class="cls-1" d="M133,601.81a22.13,22.13,0,0,0,.46,6,132.22,132.22,0,0,0,8.69,29c1.17,2.74,2.62,5.63,5.29,7,2.21,1.1,4.82.89,7.29.66,4.44-.42,9.29-1,12.34-4.29,5.66-6.06,1.38-16.83,6.12-23.64a10.32,10.32,0,0,1,18.59,8"/><path class="cls-1" d="M265.21,414q-38.23,2-76.29,6.37c-6.4.73-13.13,1.65-18.28,5.53-4.43,3.34-7.11,8.45-9.64,13.39-12.53,24.39-25.11,48.91-33.57,75-.81,2.49-1.52,5.39-.05,7.54s4.36,2.54,6.92,2.5c7.13-.09,15.2-2,20.67,2.61a17.6,17.6,0,0,1,4.66,7.07c2.76,6.68,4,13.88,5.18,21,.93,5.53.79,13-4.55,14.66-2.93.93-6.2-.61-8.17-3s-2.91-5.4-3.74-8.36c-.93-3.31-1.78-6.87-.64-10.11s5.11-5.69,8.09-4c.12-8.09-8.68-13.28-16.59-15-4.66-1-10.49-1-13.11,3a6.62,6.62,0,0,0,9.83,8.68l1.62,4-11.84,1.49a26.06,26.06,0,0,1,.84,22.57,10.32,10.32,0,0,0-1.28,4c0,1.52.79,2.91,1.33,4.33,1.42,3.76,1.07,7.93,1.71,11.9"/><path class="cls-1" d="M191.25,624.7h.41"/><path class="cls-1" d="M192.43,623.76q7.56-.71,15.15-1c6.19-.2,12.39-.18,18.59-.15l126.13.47c-1.35,7-2.29,15.37,2.94,20.21,4,3.67,10,3.75,15.39,3.61,3.75-.09,8-.45,10.29-3.43,1.28-1.69,1.63-3.89,1.93-6l5.41-37.67,1.23-8.56,2.3-16a11.61,11.61,0,0,0,.11-4.07,19.45,19.45,0,0,0-2.07-4.47c-2.87-5.78-1.66-12.63-1.16-19.07a79.37,79.37,0,0,0-.82-18.92,5.81,5.81,0,0,0-1.17-3.07c-1.06-1.16-2.82-1.29-4.39-1.33q-6.46-.15-12.91.1a16.94,16.94,0,0,0-7,1.31c-2.56,1.28-4.33,3.7-5.78,6.17a50.17,50.17,0,0,0-6.53,31.58l9.26.73a2.38,2.38,0,0,0,1.69-.28,2.46,2.46,0,0,0,.61-2.06A52.2,52.2,0,0,1,364,545.94a4.78,4.78,0,0,1,1.67-2.79,5.09,5.09,0,0,1,2.25-.59,22.14,22.14,0,0,1,7.79.12c2.53.65,4.93,2.43,5.58,5,.75,2.92-.95,5.83-1.88,8.7s-.51,6.88,2.38,7.73l1.74-23.46"/><path class="cls-1" d="M261.8,421.35q-38.53,1.11-77,4.62c-2.52.23-5.15.51-7.29,1.86s-3.52,3.59-4.81,5.76Q162,451.71,152.25,470.41c-2.26,4.35-4.54,9-4.28,13.88q52.91,2.26,105.87.18a4.34,4.34,0,0,0,2.94-.86c.74-.74.55-2.34-.48-2.48l-74.2-1c-2.08,0-4.51-.24-5.63-2,25.45-3.59,51.3-2.82,77-1.47,2,.1,4.06.25,5.68,1.38s2.46,3.63,1.18,5.13c2.17,3,6.4,3.22,10.07,3.21l86.64-.26c2.28,0,4.76-.07,6.56-1.48,3.14-2.46,2.47-7.32,1.4-11.16a226.42,226.42,0,0,0-9.68-27.69c1-1.19,2.72.63,3.19,2.13l8.94,28.67a12.43,12.43,0,0,1,.83,5.91c-.92,4.88-7,6.76-11.92,6.69s-10.41-1-14.48,1.86c-4.59,3.21-5.25,9.63-5.47,15.22-.1,2.52,0,5.44,1.92,7,1.52,1.23,3.66,1.22,5.61,1.06s4-.39,5.73.54,2.64,3.54,1.19,4.85a4.21,4.21,0,0,1-2.5.82,24.2,24.2,0,0,1-12-2.06l8.69-1"/><path class="cls-1" d="M299.37,415.41a217.25,217.25,0,0,1,40.18,3,10.72,10.72,0,0,1,4.05,1.27,10.59,10.59,0,0,1,2.71,2.83,170.14,170.14,0,0,1,21.29,38.33c1,2.47,1.9,5,2.82,7.45l7.23,19.57"/><path class="cls-1" d="M345,516.91a1.4,1.4,0,0,1,1.95.78c-6.07,1.34-12.37.7-18.57.26-24.42-1.75-48.95-.27-73.4,1.2a4.46,4.46,0,0,0-3.24,1.1,3.18,3.18,0,0,0-.65,1.76,3.36,3.36,0,0,0,1.26,3.13,1.93,1.93,0,0,0,2.86-.95c.24-1.16-1.6-2.13-2.23-1.13.25,1.14,2.07,1.17,2.81.25a4.77,4.77,0,0,0,.59-3.38c1.4.5,2.8,1.58,2.87,3.06s-2.07,2.72-3,1.55c-.7-.91-.09-2.31-.59-3.34S254,520,253,519.79a261.13,261.13,0,0,0-47.9-2.7c-1.17,0-2.51.18-3.18,1.14a3.49,3.49,0,0,0-.47,2,19.89,19.89,0,0,0,.58,4.8,3,3,0,0,0,.79,1.58,3.35,3.35,0,0,0,2.74.4c17.12-2.43,34.53-1.22,51.77.2l.11,3.81c-16.5,4.51-34,1.6-51.08,3.05a5.4,5.4,0,0,0-3.16,1c-1.29,1.13-1.24,3.11-1.09,4.82l1,11c.18,2,.42,4.24,1.78,5.78,2.33,2.66,6.52,2,10,1.53a108.79,108.79,0,0,1,16.25-.74c16.67.07,33.34.14,50,.76,9.1.33,18.43.8,27.09-2-.15-1.61-2.26-2.05-3.88-2.08q-32.85-.43-65.69.86a115.62,115.62,0,0,1-17.46-.15,4.27,4.27,0,0,1-4.44-3.31,18.2,18.2,0,0,1-1.58-7,7.82,7.82,0,0,1,2.94-6.27c2-1.4,5-1.37,6.55.42s.95,5.19-1.34,5.9a22.2,22.2,0,0,0-2.32.49c-2.09.9-1.26,4.78,1,4.75,4.28-2.57,4-9.6,8.31-12.14a1.77,1.77,0,0,1,1.53-.27,1.7,1.7,0,0,1,.81,1c1,2.64,0,5.59-.7,8.34s-1,6.1,1.11,8c2.41-2.08,2.14-5.79,1.95-9s.36-7.1,3.33-8.23a9.47,9.47,0,0,1,.51,8.24c-.62,1.49-1.63,3.19-.78,4.55s2.64,1.26,3.9.55a19.32,19.32,0,0,0,3.22-2.92,10.59,10.59,0,0,1,13.47-.31,9.71,9.71,0,0,0,1.9,1.44,3.74,3.74,0,0,0,1.62.34c3.38,0,6.11-3.56,9.48-3.19,1.73.19,3.15,1.4,4.7,2.22s3.7,1.13,4.84-.2"/><path class="cls-1" d="M186.66,565.9a1660.48,1660.48,0,0,1,186.39,1.86c2.94.19,6.95,1.83,6,4.63q-88.09,0-176.09,5.4c-6.82.43-13.69.87-20.46,0-2.64-.35-5.56-.84-7.76.65-2.84,1.93-2.93,6-2.53,9.45.41,3.58,1.25,7.55,4.23,9.6,2.47,1.71,5.72,1.6,8.73,1.43a1589.94,1589.94,0,0,1,160.14-1c2.32.1,5.11.52,6,2.65s-.77,4.5-2.66,5.84a15.07,15.07,0,0,1-14,1.72,9.21,9.21,0,0,1,8.71-1.17,2.93,2.93,0,0,1,1.6,1.21c.92,1.79-1.63,3.43-3.64,3.42s-4.46-.38-5.63,1.25a8.28,8.28,0,0,0,6.15.16"/><path class="cls-1" d="M5.2,671Q-3.24,510.85,3.47,350.38c.13-3.06.32-6.3,2.07-8.82,2-2.94,5.72-4.19,9.17-5.18,21.53-6.14,43.89-8.77,66.14-11.35,112.94-13.11,226.19,10.3,339.88,9.5,1.65,0,3.68-.27,4.27-1.81s-2.65-2.66-2.47-1"/><path class="cls-1" d="M5.23,668.24c4.44,2.85,9,5.76,14.25,6.65s11.22-.78,13.91-5.33c2.1-3.54,1.78-8,1.41-12.07A1495.45,1495.45,0,0,1,35.86,379c.79-8.06,4.51-17.53,11.41-22.53,3.34-2.42,8.69-2.6,11.12.74,1.37,1.89,1.51,4.37,1.59,6.7,2,61.09-4.64,122.16-3.91,183.28.47,39.95,4.09,79.8,7.71,119.59a27.15,27.15,0,0,0,26.86-11"/><path class="cls-1" d="M453.32,313c-1.79.55-2.77,2.42-4.1,3.74-3,3-7.87,3-12.13,2.67-9.07-.73-18.06-2.18-27.13-2.87-8.82-.67-17.41.18-26.2.55-33.22,1.41-66.22,5.76-99.15,10.11-90.47,11.93-180.94-12-271.4-.11-1,.14.75-9.77,1.14-10.69,1.61-3.71,3.93-5.61,7.36-7.51,8.37-4.63,17.72-6.77,25.81-12.18,10.7-7.16,18.89-17.61,29.67-24.63,10-6.49,21.66-9.75,33.29-12.26,6.14-1.33,12.47-2.53,17.81-5.82s9.58-9.25,8.85-15.49"/><path class="cls-1" d="M338.37,610.51c5.14,1.15,5.93,8,5.6,13.3q-4.41,69.29-2.89,138.77"/></g></g></svg>