<svg xmlns="http://www.w3.org/2000/svg" viewBox="0 0 675.44 5489.7"><defs><style>.cls-1{fill:none;stroke:#000;stroke-miterlimit:10;}</style></defs><title>line</title><g id="Layer_2" data-name="Layer 2"><g id="Layer_1-2" data-name="Layer 1"><path class="cls-1" d="M164.52,5489.2s5.3-.17,6.3-5.17c10.86-54.29,27.58-136.84,37.57-191.3,13.85-75.56,27.73-152.91,15.45-228.74-3.58-22.13-9.35-43.83-14.8-65.57q-18.47-73.68-32-148.48c-7.15-39.49-13.22-80.45-3.58-119.41,9.77-39.51,34.78-73.27,59.81-105.36Q262.57,4587.61,293,4551c4.84-5.92,12.57-16.29,18.92-16.37C368.82,4534,255.82,4235,235.82,4026c-5.75-70.3,12.4-146,21.43-215.9S248.82,3676,243.82,3588l.19-.16a586.73,586.73,0,0,1,38-244c22.28-57.91,47.33-116,84.79-165.49,29-38.35,54-72.35,68-121.35,0,0,10.61-42.91,16.05-64.47,17.95-75.53-327-153.53-438-279.95-3.09-2.67-4.86-6.54-6.26-10.37l.23.79c-19.34-94.59,5.72-207.11,74.91-274.44,18.14-17.65,38.49-32.83,58.78-48l49.75-37.09c21.12-15.74,42.39-31.62,60.06-51.16,38.76-42.84,57.53-100.48,65.14-157.76,4.62-34.77-.14-75.1,19.86-102.1,29.05-37.9,151.75-105.78,185.78-128.73,19.12-12.89,38.4-25.92,54.33-42.59,9.11-9.53,17.06-20.2,27-28.83,12.13-10.5,27.26-18.05,36.17-31.38,15.47-23.15,5.91-56.17-13.88-75.74s-47.18-29-73.48-38.14c-28.42-9.87-56.76-20.08-84.26-32.3-40.65-18.06-81.76-43-100.25-83.47-17.27-37.79-11.86-80.89-12.74-121.11C350.5,1216.91,256.82,950,257,687.72c-4.43-36,38.72-42.91,37.79-77.86-1.15-43-23-79.71-13.58-124.51,14.37-68.66,77.67-104.58,129.33-143.45,31.65-23.81,70.51-39.81,104.72-59.78,38-22.16,75.16-45.8,110.29-72.29,19.07-14.38,38.4-30.83,46-53.49s1.74-48.34-10.38-69.06-29.93-37.42-47.79-53.45C603.5,25,592.55,12.41,597.67.19"/></g></g></svg>