<svg xmlns="http://www.w3.org/2000/svg" viewBox="0 0 556.28 925.35"><defs><style>.cls-1{fill:none;stroke:#fff;stroke-miterlimit:10;}.cls-2,.cls-4,.cls-9{fill:#fff;}.cls-3,.cls-5,.cls-6{fill:#cf8289;}.cls-4,.cls-9{font-size:23.72px;font-family:EssonnesHeadline-Bold, Essonnes;font-weight:700;}.cls-14,.cls-4{letter-spacing:0.02em;}.cls-5{font-size:19px;letter-spacing:0.07em;}.cls-5,.cls-6{font-family:ProximaNova-Regular, Proxima Nova;}.cls-6{font-size:26px;letter-spacing:0.07em;}.cls-7{letter-spacing:-0.04em;}.cls-8{letter-spacing:0em;}.cls-12,.cls-9{letter-spacing:0.02em;}.cls-10{letter-spacing:0.01em;}.cls-11{letter-spacing:-0.09em;}.cls-13{letter-spacing:0em;}</style></defs><title>Asset 7</title><g id="Layer_2" data-name="Layer 2"><g id="Layer_1-2" data-name="Layer 1"><path class="cls-1" d="M246.92,13.84c-28.51,33-35.57,83-17.31,122.54,12,26,34.27,50,31.23,78.4-3.12,29.23-31.33,48.09-56.07,64-27.07,17.4-53.83,36.74-72,63.29s-26.53,61.78-14.2,91.5c8.72,21,26.52,36.92,45.37,49.64,30.21,20.38,64.2,34.35,96.22,51.74s63.05,39.25,81.87,70.45,22.84,73.49,1.86,103.28c-5.33,7.58-12.35,14.75-13.44,24-1.2,10,5,19.6,4.77,29.67-.55,21.93-27.53,30.67-47.4,40-40.87,19.15-67.09,65.7-62.29,110.58"/><circle class="cls-2" cx="244.5" cy="14.37" r="6"/><circle class="cls-3" cx="260" cy="193.87" r="12"/><circle class="cls-2" cx="260" cy="193.87" r="6"/><circle class="cls-2" cx="117" cy="373.87" r="6"/><circle class="cls-2" cx="291" cy="553.87" r="6"/><circle class="cls-2" cx="331" cy="732.87" r="6"/><circle class="cls-2" cx="226" cy="912.87" r="6"/><text class="cls-4" transform="translate(50 212.83)">The Night Shift</text><text class="cls-5" transform="translate(50 180.97)">Chapter 1</text><text class="cls-6" transform="translate(269 21.66)">HOME</text><text class="cls-5" transform="translate(142 360.97)">Chapter 2</text><text class="cls-5" transform="translate(0 541.97)">Chapter 3</text><text class="cls-5" transform="translate(77 720.97)">Chapter 4</text><text class="cls-5" transform="translate(245 888.97)">Chapter 5</text><text class="cls-4" transform="translate(142 392.83)">Born In The Mids<tspan x="0" y="33">of a Malaria </tspan><tspan class="cls-7" x="145.85" y="33">F</tspan><tspan class="cls-8" x="160.57" y="33">ev</tspan><tspan x="185.26" y="33">er</tspan></text><text class="cls-9" transform="translate(0 571.83)">Sanit<tspan class="cls-10" x="59.26" y="0">a</tspan><tspan x="71.74" y="0">tion In The Slum</tspan></text><text class="cls-4" transform="translate(77 750.83)">The Car <tspan class="cls-11" x="99.29" y="0">W</tspan><tspan class="cls-12" x="123.56" y="0">ash B</tspan><tspan class="cls-13" x="185.43" y="0">o</tspan><tspan x="198.09" y="0">ys</tspan></text><text class="cls-9" transform="translate(245 918.83)">A Bithd<tspan class="cls-13" x="87.86" y="0">a</tspan><tspan x="99.96" y="0">y Commemor</tspan><tspan class="cls-10" x="253.21" y="0">a</tspan><tspan class="cls-14" x="265.68" y="0">tion</tspan></text></g></g></svg>