<svg xmlns="http://www.w3.org/2000/svg" viewBox="0 0 460.85 376"><defs><style>.cls-1,.cls-2{fill:none;stroke-miterlimit:10;}.cls-1{stroke:#000;}.cls-2{stroke:#0a0a0a;}</style></defs><title>night</title><g id="Layer_2" data-name="Layer 2"><g id="Layer_1-2" data-name="Layer 1"><path class="cls-1" d="M227.42,18c2.29.46,4.61,1.47,6.86,2.13l16.77,4.94,34.29,10.09L413.59,72.9c6.49,1.91,13,3.82,19.33,6.17,3,1.1,5.9,2.3,8.94,3.18s5.94,1.29,8.89,2.16a2.83,2.83,0,0,0,1.69.15,5.06,5.06,0,0,0,.88-.49,7.11,7.11,0,0,1,1.9-.7l4.08-1.08q.34-2.88,1-5.72l-7.83-2.69a73.76,73.76,0,0,0-7.45-2c-5.26-1.24-10.4-2.92-15.54-4.59l-203.13-66,.57,5.83c14.54,3.4,27.94,10.55,42.28,14.72,9.48,2.76,19.3,4.2,28.89,6.56,8.72,2.15,17.24,5,25.74,8L370,52.08l83.78,28.59"/><path class="cls-1" d="M247.79,118q13.74,1.8,27.28,4.86c-.91-4.22-.09-8.6,0-12.92.05-1.87,0-3.75-.09-5.62L274.08,80a1.36,1.36,0,0,0-.15-.7,1.38,1.38,0,0,0-.92-.48,228.18,228.18,0,0,1-25-6.6c1.14,7.64-1.12,15.4-.73,23.12a1.41,1.41,0,0,0,.17.73,1.47,1.47,0,0,0,1.14.44,48.19,48.19,0,0,1,10.63,2.14q-.13-10,.4-19.95a.54.54,0,0,1,.76-.62A67,67,0,0,1,270,80.5a1.18,1.18,0,0,1,1,1.36l.53,19.29a1.24,1.24,0,0,1-.21.89,1.22,1.22,0,0,1-1.14.12c-3.48-.8-6.94-1.69-10.39-2.64v19a.88.88,0,0,0,.17.64.89.89,0,0,0,.74.13,16.6,16.6,0,0,1,9.18,1.56q.17-9.09-.14-18.17c-4,.4-7.7-1.74-11.48-3A28.07,28.07,0,0,0,248,98.13l.31,7a34.8,34.8,0,0,1,0,4.68c-.25,2.51-1.07,5.12-.22,7.5"/><path class="cls-1" d="M300.79,128.62A193.34,193.34,0,0,1,325,132.84c-1.19-13.62-.31-27.34-1.19-41a38.9,38.9,0,0,0-9.11-2.5q-4.53-.83-9.09-1.49A10.72,10.72,0,0,1,301,86.45l-.23,21.86a1,1,0,0,0,.15.63.92.92,0,0,0,.58.26l7.26,1.45.42-17.06a3.58,3.58,0,0,1,.47-2,1.24,1.24,0,0,1,1.85-.27,150.86,150.86,0,0,0-.53,18.16,1.68,1.68,0,0,0,.27,1,1.57,1.57,0,0,0,.85.43,39,39,0,0,0,8.52,1.34q.09-8.23,0-16.47a2.08,2.08,0,0,0-.39-1.47,2.12,2.12,0,0,0-.88-.46c-5.75-1.9-11.56-3.82-17.6-4.32q-.4,18.44-.1,36.88a1.33,1.33,0,0,0,.23.9,1.43,1.43,0,0,0,.83.36l5.88,1.07.5-11.74a28.51,28.51,0,0,1,.47-4.88,1.17,1.17,0,0,1,.35-.74,1.21,1.21,0,0,1,1-.12,40.88,40.88,0,0,1,7.15,1.79,1.89,1.89,0,0,1,1,.61,1.92,1.92,0,0,1,.22,1l.4,14.55"/><path class="cls-1" d="M347.66,98.25a.68.68,0,0,1,.59-.77,2,2,0,0,1,1.06.23,45.22,45.22,0,0,0,9.27,2.71c2.89.52,5.89.79,8.51,2.09a2,2,0,0,1,.89.71,2.13,2.13,0,0,1,.23.93c1.07,12.58,1.53,25.22,1.38,37.84a8.62,8.62,0,0,1-3.91-.48c-5.87-1.65-11.82-3-17.81-4.09l.31-16.69a1,1,0,0,1,.27-.78.92.92,0,0,1,.59-.1,24.71,24.71,0,0,1,6.3,1.31,1.45,1.45,0,0,1,.59.34,1.34,1.34,0,0,1,.22.88q.15,7.74.76,15.47a1.6,1.6,0,0,0,.18.72c.29.43.9.46,1.42.46a20,20,0,0,1,6.92,1.29q.39-8,.09-16.1a1.45,1.45,0,0,0-.27-1,1.48,1.48,0,0,0-.84-.35l-7.82-1.39a1.4,1.4,0,0,1-.85-.36,1.45,1.45,0,0,1-.26-.82,139.86,139.86,0,0,1-.49-17.73,25.27,25.27,0,0,1,9.48,1.88,119.84,119.84,0,0,0,.4,15.74,1.7,1.7,0,0,1-.2,1.24c-.38.47-1.11.41-1.7.29L349,119.08a1.17,1.17,0,0,1-.55-.19c-.37-.29-.29-.86-.19-1.31a35.66,35.66,0,0,0-.73-17.94"/><path class="cls-1" d="M388.91,109l-.11,18.12a1.14,1.14,0,0,0,1.11,1.46l5,.84q.3-8.91-.14-17.82a22.2,22.2,0,0,1,5.91,1.32,14.37,14.37,0,0,0,3.29,1,3.41,3.41,0,0,0,3.11-1.09,104.22,104.22,0,0,0,.63,13.22c.26,1.89.61,3.76.8,5.66s.21,3.85.23,5.77l.12,12.19a.6.6,0,0,1-.1.42c-.14.17-.41.14-.63.09q-8.3-1.81-16.53-3.95a1.6,1.6,0,0,1-1-.52,1.66,1.66,0,0,1-.2-.82L389.69,129a76,76,0,0,1,14.13,2.55,69.35,69.35,0,0,0-.3-15.24,1.47,1.47,0,0,0-1.42-1.57l-6.25-1.51q.52,11.85.64,23.73c0,3,.06,6.24,1.55,8.9a2.64,2.64,0,0,0,.86,1,2.93,2.93,0,0,0,1.34.34c1.26.11,2.53.19,3.79.23a116.51,116.51,0,0,1-.77-14.82"/><path class="cls-1" d="M389.08,109.08a2,2,0,0,1-.12-1,84.67,84.67,0,0,1,16.62,4.47"/><path class="cls-1" d="M425.44,117.63q.38,18,1.09,36a147.06,147.06,0,0,1,16.83,2.45,233.15,233.15,0,0,1-1.16-23.92,42.11,42.11,0,0,0-.76-10.41l-2.74-.15q1.37,16.47,1.13,33a11.66,11.66,0,0,1-6.53-1.51l-1-15.17a20.06,20.06,0,0,1,5.87.77c-.1-5.19-.39-10.39-.86-15.56a1.33,1.33,0,0,0-.18-.68,1.45,1.45,0,0,0-.87-.43l-5-1.09.76,10.65a21.83,21.83,0,0,1-.15,6.15,11.83,11.83,0,0,1-5.93-.93,150.38,150.38,0,0,0,.2-18.87,44.25,44.25,0,0,1,14,3.33"/><path class="cls-1" d="M247.85,150.76c2.2-.13,4.35.63,6.47,1.24,6.42,1.84,13.13,2.34,19.74,3.27a1.83,1.83,0,0,1,1.34.6,1.9,1.9,0,0,1,.19,1q-.25,22.64-.44,45.27-8.16-.55-16.3-1.4l.38-22.54q5.86.6,11.74,1a88.46,88.46,0,0,1-.44,20.95,1.09,1.09,0,0,1-.3.72,1.06,1.06,0,0,1-.79.12l-6-.6-16.91-1.7a105.62,105.62,0,0,0,.08-20.35c-.05-.59,0-1.33.51-1.59a1.47,1.47,0,0,1,.78,0l9.75,1.1a1.19,1.19,0,0,0,.75-.09,1.14,1.14,0,0,0,.37-.85,65.38,65.38,0,0,0,.15-9.39l-.39-12.39-10.77-2.41-1,21.94c0,.35,0,.77.3,1a1,1,0,0,0,.55.12c7.54.21,14.9,2.77,22.44,2.56a.9.9,0,0,0,.68-.21.91.91,0,0,0,.14-.61l-.05-13.91a31.13,31.13,0,0,0-.37-5.79q-4.79-1.1-9.62-2"/><path class="cls-1" d="M302,205.27c6.18-.38,12.31,1.39,18.5,1.35a25.41,25.41,0,0,1,5.85.24q0-21.59-.46-43.18a.59.59,0,0,0-.09-.37.6.6,0,0,0-.37-.16l-15.88-3a31.66,31.66,0,0,0-7.5-.79c.06,7.79-1.82,15.58-.92,23.32a.94.94,0,0,0,.11.37.82.82,0,0,0,.56.28,49.35,49.35,0,0,0,10.36.9L312,164.74a.73.73,0,0,1,.87-.91,27.79,27.79,0,0,1,7.86.89,1.58,1.58,0,0,1,.93.5,1.64,1.64,0,0,1,.2.9l.26,18.42a.66.66,0,0,1-.12.48.65.65,0,0,1-.45.15,42.48,42.48,0,0,1-7.85-.79c-.4-.06-.89-.07-1.11.27a1,1,0,0,0-.11.54L312,198.55l-.14,4.67a.89.89,0,0,0,1,1.16l9.26.54q.58-8.64.74-17.32a1.44,1.44,0,0,0-.09-.62c-.29-.55-1.08-.43-1.68-.32a13.5,13.5,0,0,1-5.33-.61,48.52,48.52,0,0,0-14.06-1.2l-.17,18.24a54,54,0,0,0,7.19.42,126.86,126.86,0,0,0,.11-16"/><path class="cls-1" d="M350.08,166.93a156.57,156.57,0,0,1,20.74,3.44q.35,15.42.8,30.83l.28,10.15c-4.4-.37-8.79-.95-13.13-1.72l-.6-14.3a7.53,7.53,0,0,1,.61-4.14.91.91,0,0,1,.35-.4,1.16,1.16,0,0,1,.49-.1l5.44-.27a2.5,2.5,0,0,1,2.08.53,2.46,2.46,0,0,1,.44,1.41,89.91,89.91,0,0,1,0,16.65q-8.78-1-17.58-1.77l-.13-18a15.58,15.58,0,0,1,7.51.73q-.8-9.87-.83-19.79-3.45-.5-6.93-.77l.42,17.68a1,1,0,0,0,.1.47.93.93,0,0,0,.72.31l15.08,1.67a.75.75,0,0,0,1-.92l-.61-14.35a2.2,2.2,0,0,0-.48-1.57,2.11,2.11,0,0,0-1.13-.46c-2.1-.42-4.22-.73-6.35-.95q.45,7.92.21,15.85"/><path class="cls-1" d="M392.12,213.38c-.83-4.86-.34-9.84-.33-14.77,0-8.4-1.35-16.8-.72-25.18q7.71.58,15.39,1.54a6.48,6.48,0,0,1,2.43.64,1.53,1.53,0,0,1,.69.71,1.81,1.81,0,0,1,.08.77c-.29,12.51,2.13,25,1.65,37.47a.69.69,0,0,1-.11.4.71.71,0,0,1-.59.16l-8.52-.44c-.74,0-1.63-.17-1.95-.84a2,2,0,0,1-.14-.92,140.82,140.82,0,0,0-1.13-18l-6.61-1a78.57,78.57,0,0,1-.28-18.07,14.93,14.93,0,0,1,6.48,1l1.34,17.62a1,1,0,0,0,.23.66.89.89,0,0,0,.58.18l6.46.56L407,182c0-1.24-.1-2.66-1.09-3.41a4.1,4.1,0,0,0-2-.61l-3.86-.44q-.08,17.58,1.22,35.12h5.36q.14-7.6-.22-15.22l-11.07-2c-.41-.08-.91-.12-1.16.21"/><path class="cls-1" d="M394.39,195.3c-.6-.07-.86.72-.91,1.31q-.68,8.13-1,16.27a25.18,25.18,0,0,0,6,.5"/><path class="cls-1" d="M429.42,216.71a100.57,100.57,0,0,0,16.45.95q.08-17.57-1.23-35.08a1.54,1.54,0,0,0-.24-.82,1.44,1.44,0,0,0-.9-.4q-7.56-1.34-15.22-2a131.53,131.53,0,0,1,.42,18.19,1.25,1.25,0,0,0,.14.79,1.3,1.3,0,0,0,.92.39,115.26,115.26,0,0,0,12.32.78c.1-5.16,0-10.33-.38-15.48a1,1,0,0,0-.18-.61,1,1,0,0,0-.56-.25l-6.66-1.44a94.28,94.28,0,0,1,1,10.48c.27,7.59-.4,15.22.36,22.77a.71.71,0,0,0,.18.49.73.73,0,0,0,.46.13l4.86.22.06-13.5a1.42,1.42,0,0,0-.31-1.09,1.3,1.3,0,0,0-.72-.27L430,199.17a.39.39,0,0,0-.35.05.34.34,0,0,0-.05.26l.58,16.12"/><path class="cls-1" d="M302.66,162.83a11.13,11.13,0,0,1-.25,3.54c-.82,5.14-.51,10.38-.21,15.57a.76.76,0,0,0,.17.54.74.74,0,0,0,.46.14c2.37.19,4.84-.15,7.08.67l0-19.76a14.07,14.07,0,0,0-7.29-.91"/><path class="cls-1" d="M227.49,18.05c-3,37.25-1,83.11-.57,120.49q.09,7.31.2,14.6l.52,38.84"/><path class="cls-1" d="M342.81,248.93v-.33"/><path class="cls-1" d="M343.51,253.24a7.65,7.65,0,0,0-1-4l.5,3.37-.62-4.08a2.24,2.24,0,0,1-1.33,2.92"/><path class="cls-2" d="M345.84,69.58l2.14.7a8.17,8.17,0,0,0-1-2.55,4,4,0,0,0-1.09-1.23,4.46,4.46,0,0,0-1.79-.63,4.59,4.59,0,0,0-2.84.27,2.83,2.83,0,0,0-1.16,3.63,4,4,0,0,0,1.89,1.7c.77.39,1.61.63,2.41,1a3,3,0,0,1,1.68,1.39.74.74,0,0,1,0,.72.84.84,0,0,1-.55.24,4.3,4.3,0,0,1-2.41-.21,2.44,2.44,0,0,1-1.48-1.82.51.51,0,0,0-.07-.24.39.39,0,0,0-.23-.14,7.14,7.14,0,0,0-1.76-.35,3.91,3.91,0,0,0,1.62,3.47A9.25,9.25,0,0,0,344.84,77a3,3,0,0,0,1,.1,2.2,2.2,0,0,0,1.36-.76,3,3,0,0,0,.45-3.6,4,4,0,0,0-1.53-1.21c-1.41-.72-3.06-1.17-4-2.41a1.33,1.33,0,0,1-.34-.84,1,1,0,0,1,.77-.85,2,2,0,0,1,1.21.12,4.08,4.08,0,0,1,2.17,1.94,2.05,2.05,0,0,0,.34.57,1.86,1.86,0,0,0,.65.35,53.21,53.21,0,0,1,6,2.63.83.83,0,0,1,.38.31.89.89,0,0,1,.05.46,26.69,26.69,0,0,0,0,4.47.9.9,0,0,0,.1.42.92.92,0,0,0,.57.33,11.65,11.65,0,0,0,1.43.28,41.81,41.81,0,0,0-.05-7.75,1.06,1.06,0,0,1,.1-.62,8.8,8.8,0,0,1,2.67.73,2,2,0,0,1,.85,1.51,1.1,1.1,0,0,1-.23.83,1.4,1.4,0,0,1-1.38.27,5.7,5.7,0,0,1-1.81-.69"/><path class="cls-2" d="M355.26,73.44l-1.92-1.11a.58.58,0,0,1-.12-.1.33.33,0,0,1,0-.17,16.47,16.47,0,0,1,.11-3.14.29.29,0,0,1,0-.13.2.2,0,0,1,.15-.08,3.24,3.24,0,0,1,1.79.22,15.39,15.39,0,0,0,1.71.65,10.63,10.63,0,0,1,1.57.4,3.68,3.68,0,0,1,.85.56,4.21,4.21,0,0,1,1.34,1.65,5.43,5.43,0,0,1,.1,2.66A1.42,1.42,0,0,1,359,76.27a9,9,0,0,1-2.25-.29"/><path class="cls-2" d="M368.45,74.42a13.94,13.94,0,0,0,0,1.94c0,.58.12,1.15.13,1.73s0,.92-.06,1.38l-.25,3.41a5.55,5.55,0,0,1-2-.57,52,52,0,0,0,.28-10.51l5.08,1.44q4.83,1.38,9.68,2.71a.34.34,0,0,1,.22.14.26.26,0,0,1,0,.15l-.17,1.45a6.94,6.94,0,0,0-2.81-.8,41.77,41.77,0,0,0-.23,8.73,7.09,7.09,0,0,0-2.17-.84,54,54,0,0,0,.14-8.53l-3.13-.82,0-.73"/><path class="cls-2" d="M392,88.06c-.17.57.4,1.11,1,1.26a17.55,17.55,0,0,1,1.77.26,91.56,91.56,0,0,0-3.88-10.89,1,1,0,0,0-.21-.36,1,1,0,0,0-.33-.19,7.14,7.14,0,0,0-1.75-.5q-2.14,4.81-3.85,9.81a16,16,0,0,0,2.18.34,60.5,60.5,0,0,1,2.75-7.49,23.89,23.89,0,0,0,1.17,4.31l-1.52-.43a.35.35,0,0,0-.3,0,.36.36,0,0,0-.11.23l-.29,1.47q5.51,1.39,11.06,2.6l-.05-8.12c.67.27,1.34.53,2,.78l0,5a17.56,17.56,0,0,0,.1,2.62.69.69,0,0,0,.13.38.84.84,0,0,0,.26.15l4.43,1.77a.38.38,0,0,1,.24.17.42.42,0,0,1,0,.25l-.14,1.33-3.68-.93a12.66,12.66,0,0,1-3.65-1.32"/><path class="cls-2" d="M317.23,68.67l0,1,2.28.52c0-3.51-.13-7-.26-10.54-.65-.08-1.3-.19-1.94-.33a21.58,21.58,0,0,1-.12,3.94,13.22,13.22,0,0,1-4-1.29c0-1.26,0-2.51.07-3.76-.67-.18-1.35-.34-2-.46L311,68.32l2.24.34,0-4.72a5.91,5.91,0,0,1,2.54.6c3.53,1.29,7.52,1.12,10.91,2.74a.73.73,0,0,1,.26.17,1,1,0,0,1,.17.4A5.38,5.38,0,0,0,328.8,71a2.49,2.49,0,0,0,3.3-.1,2.84,2.84,0,0,0,.57-1.2,5.19,5.19,0,0,0-.2-3.54,3.48,3.48,0,0,0-2.79-2,1.72,1.72,0,0,0-.81.11,2.21,2.21,0,0,0-.78.65,6.36,6.36,0,0,0-1.61,3,4.52,4.52,0,0,0,.87,3.44,5.43,5.43,0,0,0,3,1.94,4.35,4.35,0,0,0,1.19.13,3.78,3.78,0,0,0,2.06-.86,5.09,5.09,0,0,0,1.81-3,6.71,6.71,0,0,0,.08-2,6.21,6.21,0,0,0-1.05-3.18c-1.18-1.63-3.3-2.26-5.29-2.54a3.43,3.43,0,0,0-2,.14,2.68,2.68,0,0,0-1,1,5.15,5.15,0,0,0-.86,2.92"/><path class="cls-1" d="M.71,86.34l-.23-.79c1.39,3.84,3.17,7.7,6.26,10.37,4.28,3.69,10.33,4.47,16,4.44A76.09,76.09,0,0,0,62.81,88.48c10.62-6.73,18.88-14.7,30.34-20.33,6-3,12.33-5.45,18.52-8.14C150.18,43.26,184.54,18.13,222.77.74c.22,2.08,1,6-.59,7.72s-5.29,2.78-7.41,3.88q-9.11,4.71-18.21,9.37-18.21,9.34-36.5,18.56Q124.59,58.14,88.87,75.51"/><path class="cls-1" d="M454.24,82.38c-4.09,20.06-3,40.76-2,61.2,2.87,55,10,111.89,5.28,166.95-1.91,22.14-7.36,43.8-12.8,65.34"/></g></g></svg>