<svg xmlns="http://www.w3.org/2000/svg" viewBox="0 0 189.33 555.4"><defs><style>.cls-1{fill:none;stroke:#000;stroke-miterlimit:10;}</style></defs><title>sanitation</title><g id="Layer_2" data-name="Layer 2"><g id="Layer_1-2" data-name="Layer 1"><path class="cls-1" d="M.61,353c3.9-7.35,10.87-12.69,18.44-16.15s15.78-5.22,23.92-7"/><path class="cls-1" d="M49.47,328.12c25.18-5.74,51.41-3.32,77.11-.86a137.44,137.44,0,0,1,17.87,2.5c9.29,2.13,18,6.16,26.52,10.46,6.5,3.3,13.3,7.14,16.62,13.63,1.06,2,1.71,4.51.85,6.65a10.22,10.22,0,0,1-2.11,2.95c-4.28,4.67-8.94,9.22-14.72,11.84a52.32,52.32,0,0,1-10.15,3c-15.4,3.5-31,6.67-46.76,7-6.33.15-12.66-.16-19-.46l-26.53-1.28c-11.61-.57-23.32-1.14-34.58-4a89.26,89.26,0,0,1-29-13.5c2.27-1.46,5.23-.12,7.64,1.12C38,380,67.08,380.29,95,380.33l18.76,0c4.08,0,8.17,0,12.24-.21,13.58-.73,26.91-4,40-7.81a28.2,28.2,0,0,0,8.21-3.44c6.54-4.51,8.08-14.79,3.16-21-3.25-4.12-8.4-6.16-13.31-8-5.29-2-10.6-3.9-16-5.53-32-9.67-66.47-8.41-99.32-2.15"/><path class="cls-1" d="M40.86,333.69q-13,5.85-25.55,12.5a25.3,25.3,0,0,0-6.56,4.42,9,9,0,0,0-2.83,7.14A6.32,6.32,0,0,1,6,360.23c-.68,2.26-4.39,2.15-5.34,4.3a3.47,3.47,0,0,0,1.06,3.66c1,1,2.17,1.62,3.14,2.56,1.77,1.73,2.52,4.24,3.16,6.64,3.34,12.67,5.35,25.66,7.35,38.62"/><path class="cls-1" d="M15.48,364.91A7.75,7.75,0,0,1,19,360.7"/><path class="cls-1" d="M14.76,363.41c1.69-1.28,3.55-2.86,3.59-5a4.28,4.28,0,0,1,.08-1.29c.51-1.54,2.76-.95,4.37-.84,1.95.13,3.76-.91,5.44-1.91l12.2-7.29"/><path class="cls-1" d="M52.35,344.67c6.67-3.52,14.74-1.69,22.26-1,18.25,1.62,37.3-4.13,54.62,1.82,2.57.88,5.05,2,7.68,2.68,6,1.54,12.64.64,18.29,3.23a31.93,31.93,0,0,1,7.63,5.52l11.31,10"/><path class="cls-1" d="M23.57,361.49a10.5,10.5,0,0,1,5.25.23c1.53.46,3,1.28,4.61,1.16a8.06,8.06,0,0,0,2.37-.7l2.29-.94a1.42,1.42,0,0,0,.78-.56,1,1,0,0,0-.38-1.15,2.67,2.67,0,0,0-1.25-.36c-1.31-.15-2.63-.21-4-.26l-5.17-.24a9.31,9.31,0,0,0-3.12.22,3.17,3.17,0,0,0-2.23,2"/><path class="cls-1" d="M48.66,375.32A48.56,48.56,0,0,0,59,374.15,47.72,47.72,0,0,1,64.92,373a28.69,28.69,0,0,1,7.33.51c2.6.43,5.2.93,7.77,1.5a1.12,1.12,0,0,1,.85.49c.26.58-.53,1.06-1.15,1.21l-7.78,1.95"/><path class="cls-1" d="M65.87,367.6q8.52-.37,17-1.41c.05-.29-.26-.48-.53-.59a19.89,19.89,0,0,0-14.73-.15,13.85,13.85,0,0,1-2,.71,22,22,0,0,0-2.81.49"/><path class="cls-1" d="M87,371.44a9.06,9.06,0,0,1,6.53-4.23,26.94,26.94,0,0,1,8,.23l9.12,1.18L137,372c1.61.21,3.41.53,4.35,1.85-8.24,1.13-16.64,2.24-24.84.81-1.92-.33-3.82-.8-5.75-1a43.42,43.42,0,0,0-5.1-.23l-12.6-.11c-1.85,0-3.81-.06-5.37-1.06"/><path class="cls-1" d="M169.61,367.94l-8.47-.26c-.65,0-1.29,0-1.93-.11a13,13,0,0,1-2-.35c-.49-.12-1.09-.51-.89-1a24.69,24.69,0,0,1,9.16-1c1.27.11,2.76.22,3.58-.75"/><path class="cls-1" d="M159.07,360.6a73.22,73.22,0,0,1-9.95,1.85c-4.39.51-8.85.63-13.15,1.65-1.75.41-3.47,1-5.25,1.31a21.47,21.47,0,0,1-15-2.71c5.25-2,11.27-.09,16.62-1.73,1.42-.44,2.76-1.11,4.2-1.5a21.86,21.86,0,0,1,5.36-.5l14.16-.14a2.7,2.7,0,0,1,1.73.39c.47.38.52,1.28,0,1.5"/><path class="cls-1" d="M91,359.56a40.92,40.92,0,0,0,4.43,0,2.28,2.28,0,0,0,1.19-.29.79.79,0,0,0,.26-1.07,1,1,0,0,0-.55-.31c-1.56-.39-3.17.51-4.78.49a11.5,11.5,0,0,1-1.94-.29,15.31,15.31,0,0,0-2.7-.24.68.68,0,0,0-.47.12c-.31.28.07.78.44,1a3.94,3.94,0,0,0,2.7.28"/><path class="cls-1" d="M88.45,351.7c9.41-1.78,19,1.47,28.56,1.53a49.9,49.9,0,0,0,15.23-2.42c.46-.14,1-.52.85-1a.88.88,0,0,0-.56-.41c-4.55-1.66-9.51-1.71-14.36-1.74l-19.59-.13a13.48,13.48,0,0,0-6.16.92c-1.86.93-3.6,2.77-5.62,2.28"/><path class="cls-1" d="M65,350.21a18.87,18.87,0,0,0,4.23.43,6.18,6.18,0,0,0,3.9-1.48c-.52-.55-1.41-.44-2.16-.31a29.9,29.9,0,0,1-9.39.26c-1.58-.22-3.44-.49-4.53.66a2.26,2.26,0,0,0,1.66.43l7.32,0"/><path class="cls-1" d="M37.14,135.75c-1,.64-.48,2.78.44,3.57s2.11,1,2.83,2.12c1.08,1.68.48,4.43,1.27,6.4.21.53.51,1,.68,1.54.4,1.36-.12,2.86-.51,4.22-1.21,4.2-1.27,8.82-1.3,13.33l-.19,23.47a14.19,14.19,0,0,0,.19,3.06,18.73,18.73,0,0,0,1.2,3.24,33,33,0,0,1,1.8,7.4c1.44,9.66,1.32,19.6,1.19,29.45l-.24,18.2c0,3.58-.14,7.35-1.48,10.43A4.68,4.68,0,0,0,42.8,267a17.61,17.61,0,0,1,.59,8.75"/><path class="cls-1" d="M43,275.58a84,84,0,0,1-.24,12.69,36.9,36.9,0,0,0-.31,7c.17,1.78.66,3.47.92,5.23,1.1,7.31-1.68,15.13,0,22.22.49,2.05,1.34,3.95,1.52,6.09a21.58,21.58,0,0,1-.34,4.74,150.87,150.87,0,0,0-1.44,26.73"/><path class="cls-1" d="M49.35,360.27c-.94-4.75,1.57-9.51,1.63-14.42,0-3.43-1.11-6.64-2-9.88s-1.37-7-.17-10c.4-1,1-1.88,1.35-2.9,1.31-3.56-.05-7.75-.42-11.7-.48-5.28.89-10.65.32-15.91-.33-3-1.25-5.75-1.43-8.73-.38-6.45,2.8-12.53,2.53-19-.12-2.86-.91-5.58-1.34-8.38-1.18-7.59.26-15.42.82-23.14a132.29,132.29,0,0,0-.11-18.57,181.24,181.24,0,0,0-3.52-25.18"/><path class="cls-1" d="M48.05,194.71V195"/><path class="cls-1" d="M48.11,194.52c-.92-.52-1.26-2.13-1.07-3.47a19,19,0,0,1,1.18-3.72,17.48,17.48,0,0,0,.67-8.3c-.28-1.73-.82-3.36-1.23-5a36.16,36.16,0,0,1,1.07-20.52,12.6,12.6,0,0,0,1-3.8c.09-2.08-.91-3.9-1.64-5.73s-1.15-4.31-.1-5.82"/><path class="cls-1" d="M42.3,141.45c1.28,2.45,2.62,5.24,2.3,8.21a.75.75,0,0,1-.16.46c-.24.23-.52-.21-.63-.57a49,49,0,0,1-1.66-7.4"/><path class="cls-1" d="M39.29,136.53c-.18-.42-.49-.57-.73-.35a5.12,5.12,0,0,0,.43,3,2,2,0,0,0,1.43,1.14.41.41,0,0,0,.47-.12,2.55,2.55,0,0,0,0-2.14,1.59,1.59,0,0,0-1.06-.9"/><path class="cls-1" d="M43.13,156.05c-1.08,3,0,6.63,1.67,9.11a7.07,7.07,0,0,1,1.4,2.9,3.16,3.16,0,0,1-1.18,3,1.78,1.78,0,0,1-2.45-.88,6.07,6.07,0,0,1-.52-2.82,19.14,19.14,0,0,1,.31-3.47c.24-1.35.61-2.89,0-4.05"/><path class="cls-1" d="M41.1,180.61a.62.62,0,0,0,.75.54c.31-.06.59-.28.9-.36,1.12-.27,2,1.51,1.92,3.05a33.65,33.65,0,0,1-.91,4.42,9.86,9.86,0,0,0,.38,4.74,24.64,24.64,0,0,0,1.18,2.55,26.34,26.34,0,0,1,2,5.73c.25,1.1.29,2.64-.5,3.07s-1.54-.67-1.93-1.68a23.33,23.33,0,0,1-1.4-5.76,34.79,34.79,0,0,0-.56-4.37c-.2-.81-.51-1.57-.75-2.36a16.44,16.44,0,0,1-.22-8.53"/><path class="cls-1" d="M45.81,216.07c1.15,2.52.07,6.18,1.39,8.55a20.16,20.16,0,0,0-.65-11L46,216.73"/><path class="cls-1" d="M46.84,262.66c.09,8.9.16,18-1.82,26.46-.26,1.11-.56,2.21-.86,3.31.68.91,1.35-1.61,2.31-1.62.65,0,.91,1.15,1,2l.36,5.67a19.14,19.14,0,0,1-.28,6.2c-.66,2.38-2.23,4.18-2.68,6.64a15.58,15.58,0,0,0,.71,6.59,3.1,3.1,0,0,0,.88,1.77c.84.58,1.84-.65,2-1.93A14.24,14.24,0,0,0,47.9,314c-.71-4.18.82-8.42.94-12.7.17-5.69-2.13-11.08-2.1-16.77,0-3.26.79-6.41,1.17-9.63s.31-6.79-1.17-9.36"/><path class="cls-1" d="M37.16,133.39A2.46,2.46,0,0,0,35,132a30.75,30.75,0,0,0-.15-3.84L36,128l0-4a1.71,1.71,0,0,1,.18-1,4.86,4.86,0,0,1,.68-.68c.72-.75.46-2,.33-3s.17-2.39,1.2-2.53a22.29,22.29,0,0,0,0-7.06c-2.93-.1-6-2-6.54-4.86A10.38,10.38,0,0,1,32,101.2l1.59-9.44,9.34-.23a21.16,21.16,0,0,1,3.91-11.29"/><path class="cls-1" d="M46.55,80.21c3.29-4.4,7.21-9.18,12.67-9.73a26.35,26.35,0,0,0,4.09-.35,3.22,3.22,0,0,0,2.61-2.79c-2.31-1.43-2.33-4.7-2.27-7.42a62.89,62.89,0,0,0-.93-12.48,4.15,4.15,0,0,0-.78-2.07,4.31,4.31,0,0,0-1.87-1q-3.47-1.19-7-2.21"/><path class="cls-1" d="M52.71,41.71,39.94,37a17,17,0,0,0-4.55-1.22,16.45,16.45,0,0,1-3.79-.31c-2.41-.76-3.59-3.4-4.49-5.77a15.8,15.8,0,0,1,6.64-1,14.36,14.36,0,0,0-.37,2.56,2.32,2.32,0,0,1-1.44,2c-.83.23-1.82-.78-1.32-1.48"/><path class="cls-1" d="M88,55.29a24.64,24.64,0,0,1,5.22-.18,3.29,3.29,0,0,1,1.51.39,3.45,3.45,0,0,1,1.06,1.32l1.42,2.54a3.79,3.79,0,0,1,.6,1.64c0,1.77-2.32,2.93-2.2,4.69a.77.77,0,0,0,.07.27.78.78,0,0,0,.41.27,6.07,6.07,0,0,1,2.79,2.34,2.22,2.22,0,0,0,.75.88,1.75,1.75,0,0,0,.82.13l3.14,0"/><path class="cls-1" d="M102.73,70.63l-.32-.91a21.65,21.65,0,0,0,8-.69"/><path class="cls-1" d="M111.87,67.29l.76-1.48A6.42,6.42,0,0,1,118,67.16a21.37,21.37,0,0,1,2.63,3.13,7.53,7.53,0,0,1,1.35,2,5.89,5.89,0,0,1,.25,2.09V86.15a3,3,0,0,1-1,2.65l-5.06,5.67a2.19,2.19,0,0,1-1.08.78,2,2,0,0,1-1.1-.2,16,16,0,0,1-5.65-3.83c4.14-.13,7.25-4.32,7.56-8.45s-1.48-8.11-3.46-11.75l2.43-1.53c1.8,1.45,3.73,3.13,4,5.42a12.11,12.11,0,0,1,0,2.33c-.2,2.77.05,5.58-.45,8.31s-1.94,5.5-4.48,6.64"/><path class="cls-1" d="M113.49,64.31a8.81,8.81,0,0,1,8.44-2.85l7.93,7.27a4.87,4.87,0,0,1,1.25,1.5,5.08,5.08,0,0,1,.12,2.74,61.52,61.52,0,0,0-.32,13.22,7.57,7.57,0,0,1,0,2.23,5.23,5.23,0,0,1-.75,1.67c-1.65,2.67-4.19,4.65-6.67,6.57a9.68,9.68,0,0,1-3,1.76,3.26,3.26,0,0,1-3.24-.6,34.38,34.38,0,0,0,8.08-9.91,10.75,10.75,0,0,0,2.12.15,2.11,2.11,0,0,1-1.7-1.72,6.91,6.91,0,0,1,.11-2.56A42.84,42.84,0,0,0,126,70.55l1.69-.39a15.56,15.56,0,0,1-9.82-6.3"/><path class="cls-1" d="M128.35,65.61c2.4-.94,5.21.41,6.74,2.48s2.06,4.7,2.48,7.25a38.45,38.45,0,0,1,.51,11.47c-.37,2.58-1.27,5.21-3.23,6.91a7.32,7.32,0,0,1-6.58,1.48"/><path class="cls-1" d="M125.07,62.42a17.21,17.21,0,0,1,10.87-2.25,9.66,9.66,0,0,1,3.49,1,9.16,9.16,0,0,1,2.87,2.64c2.69,3.62,3.56,8.25,4,12.74a43.25,43.25,0,0,1-.16,12.29c-.8,4.41-3,9-7.11,10.79-3,1.31-6.39.94-9.61.49,1.66-1.13,3.52-1.93,5.18-3.06,5.45-3.71,8.1-10.72,7.54-17.28s-3.95-12.65-8.46-17.46"/><path class="cls-1" d="M38.89,132.16A13.4,13.4,0,0,1,50.76,135a28.43,28.43,0,0,0,1.78-5.09,123.11,123.11,0,0,0-13.87-2.45,32.45,32.45,0,0,1,13.58,2.13,24.41,24.41,0,0,0,1-3.34.94.94,0,0,0,0-.66,1.07,1.07,0,0,0-.64-.47,45.41,45.41,0,0,0-13.56-2.9,54.74,54.74,0,0,1,14.08,2.41l1.57-4.87-13.85-3.2c4.64-.53,9.24,1,13.67,2.42l.66-3.75a1.68,1.68,0,0,0-.1-1.27,1.62,1.62,0,0,0-.87-.54A42.85,42.85,0,0,0,43.78,111a19.55,19.55,0,0,1,12.12,2.62l0-1.62c.59.22,1.09-.64.82-1.2a2.34,2.34,0,0,0-1.51-1A73,73,0,0,0,41,107.35c-.37,0-.91.11-.81.47"/><path class="cls-1" d="M57.73,113.33c1.7-.34,3.52-.74,4.72-2a8.59,8.59,0,0,0,1.77-4l1.48-6.07A2.47,2.47,0,0,0,65.5,99a3.06,3.06,0,0,0-1.13-.63,22.18,22.18,0,0,1-2.51-1.5c-4.38-2.6-10.08-1.76-14.69-4L59.42,95.2a9.48,9.48,0,0,1,3.65-8.74,9.63,9.63,0,0,0,2.49,4.94,4,4,0,0,0,2.77,1.47A4.08,4.08,0,0,0,71,91.53,13.94,13.94,0,0,0,74.89,82a35.9,35.9,0,0,0-1.47-10.37c0-.14-.11-.31-.26-.32s-.11.31,0,.22"/><path class="cls-1" d="M71.94,93l3.65.14c1.77.06,3.66.1,5.19-.81a7.39,7.39,0,0,0,2.52-2.9,18.29,18.29,0,0,0,.94-15.33,2,2,0,0,1-.2-.91c.11-1,1.52-1.06,2.49-.86a31.61,31.61,0,0,1,.57,12.13,17.52,17.52,0,0,1-5.74,10.5c1.8-.82,3.87-.59,5.83-.34l4.5.57a6.94,6.94,0,0,0,2.53,0,5.51,5.51,0,0,0,2.78-2,16.06,16.06,0,0,0,3.37-8.53,39.42,39.42,0,0,0-.31-9.27"/><path class="cls-1" d="M101.6,90.3H102a.58.58,0,0,0-.49.23c.57.06,1.15,0,1.72,0,1.84.09,3.7,1,5.46.41"/><path class="cls-1" d="M143.6,62.74c2.22-.55,4.52.25,6.67,1,3.95,1.46,7.95,2.94,11.34,5.44,4,2.93,6.85,7.09,9.36,11.34a37.84,37.84,0,0,1,3.62,7.57c1.51,4.67,1.49,9.67,1.46,14.57a1.42,1.42,0,0,1-.14.77c-.27.46-.91.49-1.44.47-6.51-.16-12.93,1.75-19.44,1.7-3.1,0-6.57-.4-9,1.57a277.89,277.89,0,0,0,31.35.29l-1,7.31c-12.75,1.12-25.71,2.22-38.25-.33l-.21-4.66a3.08,3.08,0,0,1,.19-1.51,4.5,4.5,0,0,1,1-1,5.71,5.71,0,0,0,.91-7"/><path class="cls-1" d="M144,116.11c2.57,16.63,1.75,33.58,1.24,50.41q-1,32-.41,64.1"/><path class="cls-1" d="M172.28,117.08c1.77,16.87,1.44,33.81.68,50.77"/><path class="cls-1" d="M144.45,230.61c2.31,13.35,2.08,27,1.85,40.54-.44,26.27-.23,30.67-.68,56.94"/><path class="cls-1" d="M65.74,87c2.17-4,3.54-8.9,1.91-13.18a15.89,15.89,0,0,1-.9-2.47,2.7,2.7,0,0,1,.56-2.46c.78-.78,2-.72,3-1.13a4.33,4.33,0,0,0,2.44-3.22,8.44,8.44,0,0,0-.4-4.13A2.6,2.6,0,0,0,71,58.48a1.87,1.87,0,0,0-2,.94,5,5,0,0,0-.53,2.31,2.69,2.69,0,0,0,.49,2.07c.52.52,1.66.31,1.66-.42"/><path class="cls-1" d="M36.88,33.16a66.6,66.6,0,0,1,28.9,8.39,3.61,3.61,0,0,1,1,.77c1.06,1.32-.15,3.24,0,4.94.15,2.65,3.24,3.86,5.3,5.54a9.05,9.05,0,0,1,3.27,6.3,23.86,23.86,0,0,0,.19,4.15c.72,3,3.81,4.69,6.58,6a8.87,8.87,0,0,0,2.59-6.62c0-1.21-.35-2.4-.29-3.6a3.38,3.38,0,0,1,1.67-3,23,23,0,0,0-1,7.55A2.69,2.69,0,0,0,85.4,65a3.05,3.05,0,0,0,1.29,1c1.82.93,4.31,1.72,5.67.19"/><path class="cls-1" d="M109.5,69c.61.31,1.25-.36,1.58-1,1.14-2.09,1.93-4.56,3.91-5.88,1.56-1,3.54-1.13,5.42-1.2a3.11,3.11,0,0,1,1.36.15c.62.27,1,.9,1.64,1.15a3.31,3.31,0,0,0,2.44-.44,18,18,0,0,1,12.68-.59c1.76.59,3.51,1.46,5.36,1.32"/><path class="cls-1" d="M117,98l3.25.35a2.17,2.17,0,0,0,2.38-.88,89.75,89.75,0,0,0,5.78-7,12.64,12.64,0,0,0,2-3.49,13.52,13.52,0,0,0,.46-4.4l-.06-10.38a4.52,4.52,0,0,0-.29-1.94,5.42,5.42,0,0,0-2.23-2A15.87,15.87,0,0,1,123,62.58"/><path class="cls-1" d="M122.88,555.08c4.84-5.91,12.57-16.28,18.92-16.36,4.12-.05,7.41-3.78,10.33-6.7,7.42-7.42,8.47-18.88,9.32-29.35a703.36,703.36,0,0,1,19.3-115.95,5.41,5.41,0,0,1,1.51-3c.86-.7,2-.79,3.07-1.2a5.51,5.51,0,0,0,2.19-8.14"/><path class="cls-1" d="M64.62,0c-.05,10.14.28,20.21,1.1,30.17a2.58,2.58,0,0,0,2,2.44C72.06,33.82,76.64,34,81,35.14c4,1.07,8,2.49,11,5.26a3.36,3.36,0,0,1,.88,1.14,3.91,3.91,0,0,1-.09,2.29,26,26,0,0,0-.33,9.91,52.78,52.78,0,0,0-18.08-.28l-.9-7.58a1.61,1.61,0,0,1,.11-1c.38-.64,1.34-.46,2.06-.25a13.53,13.53,0,0,0,12.56-3"/></g></g></svg>