<svg xmlns="http://www.w3.org/2000/svg" viewBox="0 0 407.56 395.16"><defs><style>.cls-1,.cls-2{fill:none;stroke-miterlimit:10;}.cls-1{stroke:#1e1b1b;}.cls-2{stroke:#000;}</style></defs><title>stone</title><g id="Layer_2" data-name="Layer 2"><g id="Layer_1-2" data-name="Layer 1"><path class="cls-1" d="M106,94.79a9.1,9.1,0,0,0,1.18,5c1.82,2.53,5.53,2.49,8.62,2.19l24.53-2.35C133.07,106.67,121,102.26,111,104c-1.71.29-3.54.89-4.44,2.37a7,7,0,0,0-.64,3.88q.88,31.11,4.65,62.06c-2.26.43-4.43-1.47-5.16-3.65s-.39-4.55-.08-6.83a231.92,231.92,0,0,0-3.4-81.12c-3.4,5.72.27,12.84,1,19.45a4.88,4.88,0,0,1-.72,3.66,5.33,5.33,0,0,1-3.43,1.39C72,109,44.52,106.88,18.22,113a3.78,3.78,0,0,0-2,.93,3.72,3.72,0,0,0-.67,2.52c-.2,11.77,1.75,23.41,3,35.07,1.23,12-.5,23.29-.54,35.15-.08,25.54,1.53,51,3.15,76.53l1.31,20.52c.9,14.11,1.79,28.23,3,42.32,1.67,20,3.91,39.91,4.13,59.94-.73,1.25-2.6-.06-3.26-1.35-6.9-13.36-6.08-29.19-6-44.22.06-15.36-.84-30.71-1.74-46.05L17.64,280c-.43-7.34-.86-14.69-1.34-22q-2.67-40.22-7.55-80.23c-1-8.4-.54-16.48-.91-24.77-.47-10.21-2.52-20.56-3.5-30.75Q1.37,91.35.52,60.37l7.78,2"/><path class="cls-2" d="M80.9,369.77a21.69,21.69,0,0,0,21.86,1c2.39-1.3,4.52-3,7-4.22,3.32-1.61,7-2.09,10.71-2.56l29.14-3.73c5.72-.73,11.49-1.47,16.9-3.46,8.83-3.24,17.84-9.84,26.7-6.65a8.23,8.23,0,0,0,3.62.89c3.05-.36,3.78-4.43,3.71-7.5-.61-26.6-1-53.2-1.47-79.8l-1.09-68-1-62.35-.5-31.18-.25-15.59c-.05-2.68-.26-5.43-.13-8.12.07-1.54.68-2.52.79-4a80,80,0,0,0-.21-11.79c-.25-3.62-.36-8.07-2.16-11.33-1.38-2.48-4.1-4.33-6.38-6a65.93,65.93,0,0,0-17-8.94c-12.3-4.46-25.44-6.1-38.4-7.31C102,26.27,69.3,25.23,42.17,39.9c-12.93,7-25.47,17.7-40.12,16.4A107.48,107.48,0,0,1,62.68,27.64S68,27.47,69,22.47C70.38,15.44,71.88,8,73.45.1"/><path class="cls-1" d="M179.42,209a36.44,36.44,0,0,1-5.73,21.85c-2.59-5.08-2.06-11.09-2.37-16.78s-2.07-12.08-7.16-14.65c-1.06,9.26-1.74,18.57-2,27.88l-6.43-14.91-2.93,9.23-5.44-7.77c-2.91.56-2.09,5.24-4.09,7.43-1.22,1.35-3.27,1.47-5.09,1.49l-12.09.13c-2.5,0-5.1,0-7.39-1s-4.22-3.33-3.92-5.82c.39-3.24,4.46-5,7.55-4s5.17,4,6.33,7A6,6,0,0,1,129,223c-1.2,3.62-6.69,2.7-9.75.42s-6.65-5.41-10.15-3.88c-3.13,1.38-4.43,6.07-7.84,6.22-4,.17-6.55-6.18-10.29-4.88a17.88,17.88,0,0,0-2.51,1.58,9,9,0,0,1-3.59.87l-5.27.53c-7.93.79-15.88,1.58-23.86,1.65"/><path class="cls-1" d="M169.42,256.06l-2,7-7.49-7.21a4.93,4.93,0,0,1-3.82,5.95,4.87,4.87,0,0,1-5.39-4.54c-3,1.88-6.61,2.4-10.1,2.87l-6.92.94c-4.89.66-10.05,1.29-14.6-.62-.39-3.38,4.27-5.49,7.34-4s4.62,4.9,5.63,8.15c2.17-4.34,9.28-4.86,12.06-.88-6.12,1.44-12.27-1.56-18.31-3.27a46.13,46.13,0,0,0-27.87.89c-4.37,1.55-8.67,3.8-13.31,3.69a13.47,13.47,0,0,1,15.7,3.35c-4.19-4.74-11.59-4.25-17.85-3.38l-11.85,1.66"/><path class="cls-1" d="M199,351.44c12.89.2,25.94.43,38.36,3.89,13.81,3.84,26.75,11.65,41.08,12.14,8.21.29,16.34-1.88,24.56-1.72,24.57.49,45.75,21.48,70.28,19.92,3.26-.21,6.55-.82,9.78-.31,8.75,1.37,15.73,10.65,24.46,9.14"/></g></g></svg>